<?xml version="1.0" encoding="iso-8859-1"?>
<!-- Uploaded to: SVG Repo, www.svgrepo.com, Generator: SVG Repo Mixer Tools -->
<svg fill="#000000" height="800px" width="800px" version="1.1" id="Layer_1" xmlns="http://www.w3.org/2000/svg" xmlns:xlink="http://www.w3.org/1999/xlink" 
	 viewBox="0 0 512 512" xml:space="preserve">
<g>
	<g>
		<g>
			<path d="M502,0H10C4.478,0,0,4.478,0,10v280c0,2.613,1.081,5.223,2.929,7.071l212,212c1.855,1.855,4.447,2.929,7.071,2.929h280
				c5.522,0,10-4.478,10-10V10C512,4.478,507.522,0,502,0z M212,477.857L34.143,300H212V477.857z M492,492H232V290
				c0-5.522-4.478-10-10-10H20V20h472V492z"/>
			<path d="M106,338h76c5.522,0,10-4.478,10-10c0-5.522-4.478-10-10-10h-76c-5.522,0-10,4.478-10,10C96,333.522,100.478,338,106,338
				z"/>
			<path d="M456,272c5.522,0,10-4.478,10-10V61c0-5.522-4.478-10-10-10c-5.522,0-10,4.478-10,10v201
				C446,267.522,450.478,272,456,272z"/>
			<path d="M456,382c5.522,0,10-4.478,10-10v-55c0-5.522-4.478-10-10-10c-5.522,0-10,4.478-10,10v55
				C446,377.522,450.478,382,456,382z"/>
		</g>
	</g>
</g>
</svg>