<?xml version="1.0" encoding="iso-8859-1"?>
<!-- Uploaded to: SVG Repo, www.svgrepo.com, Generator: SVG Repo Mixer Tools -->
<svg height="800px" width="800px" version="1.1" id="Layer_1" xmlns="http://www.w3.org/2000/svg" xmlns:xlink="http://www.w3.org/1999/xlink" 
	 viewBox="0 0 512 512" xml:space="preserve">
<path style="fill:#DB2B42;" d="M51.2,391.444h409.6c28.16,0,51.2-23.04,51.2-51.2V67.548c0-28.16-23.04-51.2-51.2-51.2H51.2
	c-28.16,0-51.2,23.04-51.2,51.2v272.696C0,368.404,23.04,391.444,51.2,391.444z M186.632,101.556L363.896,203.9L186.632,306.244
	V101.556z"/>
<polygon style="fill:#FFFFFF;" points="186.632,101.556 186.632,306.244 363.896,203.9 "/>
<g>
	<path style="fill:#2D2D2D;" d="M356.136,460.692c0-3.496,0.672-6.808,1.624-10H0v20h357.76
		C356.8,467.5,356.136,464.188,356.136,460.692z"/>
	<path style="fill:#2D2D2D;" d="M424.424,470.692H512v-20h-87.568c0.96,3.184,1.624,6.496,1.624,10
		C426.056,464.188,425.384,467.5,424.424,470.692z"/>
</g>
<path style="fill:#DB2B42;" d="M357.76,470.692c4.328,14.4,17.528,24.96,33.336,24.96s29.008-10.56,33.336-24.96
	c0.96-3.192,1.632-6.504,1.632-10s-0.672-6.808-1.624-10c-4.32-14.4-17.528-24.968-33.336-24.968s-29.016,10.56-33.336,24.968
	c-0.96,3.184-1.624,6.496-1.624,10C356.136,464.188,356.8,467.5,357.76,470.692z"/>
</svg>