<?xml version="1.0" encoding="iso-8859-1"?>
<!-- Uploaded to: SVG Repo, www.svgrepo.com, Generator: SVG Repo Mixer Tools -->
<svg version="1.1" id="Layer_1" xmlns="http://www.w3.org/2000/svg" xmlns:xlink="http://www.w3.org/1999/xlink" 
	 viewBox="0 0 512 512" xml:space="preserve">
<path style="fill:#F2F2F2;" d="M256,0C114.616,0,0,114.616,0,256s114.616,256,256,256s256-114.616,256-256S397.384,0,256,0z"/>
<path d="M384.464,395H127.288c-21.672,0-39.408-17.736-39.408-39.408V155.736c0-21.672,17.736-39.408,39.408-39.408h257.184
	c21.672,0,39.408,17.736,39.408,39.408v199.856C423.872,377.272,406.144,395,384.464,395z"/>
<path style="fill:#666666;" d="M423.872,178.352v-22.616c0-21.672-17.736-39.408-39.408-39.408H127.288
	c-21.672,0-39.408,17.736-39.408,39.408v22.616H423.872z"/>
<g>
	<rect x="369.68" y="145.12" style="fill:#F2F2F2;" width="19.952" height="4"/>
	<polygon style="fill:#F2F2F2;" points="383.584,160.408 380.568,157.784 389.656,147.344 380.568,136.896 383.584,134.272 
		394.968,147.344 	"/>
	<path style="fill:#F2F2F2;" d="M336.768,161.36H224.592c-7.712,0-14.024-6.312-14.024-14.024l0,0
		c0-7.712,6.312-14.024,14.024-14.024h112.176c7.712,0,14.024,6.312,14.024,14.024l0,0
		C350.792,155.056,344.48,161.36,336.768,161.36z"/>
</g>
<path d="M227.44,154.048l-3.088-12.624h2.456l1.2,5.728c0.312,1.544,0.616,3.152,0.824,4.4h0.032c0.208-1.328,0.56-2.824,0.92-4.416
	l1.368-5.712h2.416l1.264,5.808c0.312,1.496,0.576,2.904,0.76,4.272h0.04c0.216-1.392,0.528-2.824,0.856-4.368l1.312-5.712h2.344
	l-3.392,12.624h-2.464l-1.312-5.944c-0.32-1.432-0.544-2.632-0.688-4.008h-0.04c-0.216,1.344-0.464,2.576-0.84,4.008l-1.464,5.944
	L227.44,154.048L227.44,154.048z"/>
<path d="M243.88,154.048l-3.088-12.624h2.456l1.2,5.728c0.312,1.544,0.616,3.152,0.824,4.4h0.032c0.208-1.328,0.56-2.824,0.92-4.416
	l1.368-5.712h2.416l1.264,5.808c0.312,1.496,0.576,2.904,0.76,4.272h0.04c0.216-1.392,0.528-2.824,0.856-4.368l1.312-5.712h2.344
	l-3.392,12.624h-2.472l-1.312-5.944c-0.32-1.432-0.544-2.632-0.688-4.008h-0.04c-0.216,1.344-0.464,2.576-0.84,4.008l-1.464,5.944
	L243.88,154.048L243.88,154.048z"/>
<path d="M260.32,154.048l-3.088-12.624h2.456l1.2,5.728c0.312,1.544,0.616,3.152,0.824,4.4h0.032c0.208-1.328,0.56-2.824,0.92-4.416
	l1.368-5.712h2.416l1.264,5.808c0.312,1.496,0.576,2.904,0.76,4.272h0.04c0.216-1.392,0.528-2.824,0.856-4.368l1.312-5.712h2.344
	l-3.392,12.624h-2.464l-1.312-5.944c-0.32-1.432-0.544-2.632-0.688-4.008h-0.048c-0.216,1.344-0.464,2.576-0.84,4.008l-1.464,5.944
	L260.32,154.048L260.32,154.048z"/>
<path d="M272.984,152.776c0-0.856,0.6-1.48,1.424-1.48c0.84,0,1.424,0.6,1.424,1.48c0,0.848-0.568,1.488-1.424,1.488
	C273.568,154.264,272.984,153.624,272.984,152.776z"/>
<g style="opacity:0.2;">
	<path style="fill:#FFFFFF;" d="M172.632,116.328H127.28c-21.672,0-39.408,17.736-39.408,39.408v22.616h42.624L172.632,116.328z"/>
</g>
<g>
	<circle style="fill:#F2F2F2;" cx="151.304" cy="147.344" r="8.808"/>
	<circle style="fill:#F2F2F2;" cx="176.4" cy="147.344" r="8.808"/>
	<circle style="fill:#F2F2F2;" cx="126.2" cy="147.344" r="8.808"/>
</g>
<path style="fill:#E21B1B;" d="M367.432,326.232H241.328c-4.8,0-8.728-3.928-8.728-8.728v-68.68c0-4.8,3.928-8.728,8.728-8.728
	h126.104c4.8,0,8.728,3.928,8.728,8.728v68.68C376.16,322.304,372.232,326.232,367.432,326.232z"/>
<g>
	<path style="fill:#FFFFFF;" d="M258.928,273.576h-10.192v-5.448h27.032v5.448h-10.304v30.312h-6.536V273.576z"/>
	<path style="fill:#FFFFFF;" d="M300.184,296.136c0,3.08,0.112,5.64,0.208,7.752h-5.736l-0.32-3.944h-0.096
		c-1.12,1.856-3.672,4.52-8.28,4.52c-4.728,0-9.024-2.816-9.024-11.248v-15.192h6.52v14.064c0,4.296,1.392,7.08,4.84,7.08
		c2.592,0,4.296-1.856,4.984-3.528c0.224-0.576,0.368-1.248,0.368-2.016v-15.608h6.536L300.184,296.136L300.184,296.136z"/>
	<path style="fill:#FFFFFF;" d="M307.024,303.888c0.112-1.76,0.224-4.616,0.224-7.272v-30.408h6.52v15.384h0.112
		c1.584-2.464,4.408-4.136,8.264-4.136c6.328,0,10.832,5.256,10.784,13.104c0,9.296-5.896,13.904-11.728,13.904
		c-3.352,0-6.312-1.28-8.168-4.456h-0.112l-0.32,3.88L307.024,303.888L307.024,303.888z M313.768,293.216
		c0,0.544,0.048,1.056,0.16,1.536c0.688,2.592,2.968,4.584,5.784,4.584c4.088,0,6.584-3.304,6.584-8.488
		c0-4.584-2.176-8.296-6.536-8.296c-2.64,0-5.032,1.92-5.784,4.776c-0.096,0.48-0.208,1.056-0.208,1.696V293.216z"/>
	<path style="fill:#FFFFFF;" d="M342.912,292.8c0.16,4.68,3.816,6.696,7.96,6.696c3.032,0,5.192-0.448,7.16-1.184l0.96,4.52
		c-2.24,0.896-5.32,1.6-9.04,1.6c-8.376,0-13.312-5.16-13.312-13.072c0-7.144,4.36-13.904,12.624-13.904
		c8.392,0,11.152,6.92,11.152,12.592c0,1.216-0.112,2.176-0.208,2.752L342.912,292.8L342.912,292.8z M354.272,288.216
		c0.048-2.368-1.008-6.312-5.368-6.312c-4.04,0-5.736,3.688-5.992,6.312H354.272z"/>
	<path style="fill:#FFFFFF;" d="M147.152,303.888v-14.904L135.84,268.12h7.432l4.296,9.168c1.232,2.656,2.128,4.68,3.096,7.112
		h0.096c0.912-2.272,1.904-4.52,3.144-7.112l4.296-9.168h7.368l-11.888,20.704v15.064H147.152z"/>
	<path style="fill:#FFFFFF;" d="M188.88,290.72c0,9.52-6.68,13.744-13.264,13.744c-7.32,0-12.944-5.032-12.944-13.296
		c0-8.52,5.576-13.712,13.376-13.712C183.736,277.448,188.88,282.864,188.88,290.72z M169.408,291.008
		c0,4.968,2.432,8.752,6.408,8.752c3.72,0,6.328-3.656,6.328-8.88c0-4.04-1.808-8.656-6.264-8.656
		C171.264,282.224,169.408,286.68,169.408,291.008z"/>
	<path style="fill:#FFFFFF;" d="M217.376,296.136c0,3.08,0.112,5.64,0.208,7.752h-5.736l-0.32-3.944h-0.096
		c-1.12,1.856-3.672,4.52-8.28,4.52c-4.728,0-9.024-2.816-9.024-11.248v-15.192h6.52v14.064c0,4.296,1.392,7.08,4.84,7.08
		c2.592,0,4.296-1.856,4.984-3.528c0.224-0.576,0.368-1.248,0.368-2.016v-15.608h6.536L217.376,296.136L217.376,296.136z"/>
</g>
<g>
	<g style="opacity:0.2;">
		<path style="fill:#FFFFFF;" d="M232.6,251.152v58.864c0,1.128,0.224,2.2,0.536,3.224l86.896-73.136h-87.384"/>
	</g>
</g>
</svg>